<?xml version="1.0" standalone="no"?>
<!DOCTYPE svg PUBLIC "-//W3C//DTD SVG 1.1//EN" "http://www.w3.org/Graphics/SVG/1.1/DTD/svg11.dtd">
<svg version="1.1" width="492" height="490" onload="init(evt)" viewBox="0 0 492 490" xmlns="http://www.w3.org/2000/svg" >
<style type="text/css">
	.func_g:hover { stroke:black; stroke-width:0.5; }
</style>
<script type="text/ecmascript">
<![CDATA[
	var details;
	function init(evt) { details = document.getElementById("details").firstChild; }
	function s(s, l, c, acc, total) {
		var pct = Math.floor(c / total * 100);
		var apct = Math.floor(acc / total * 100);

		details.nodeValue = "time " + s + "s, range " + l + ", count: " + c + ", pct: " + pct + "%, acc: " + acc + ", acc pct: " + apct + "%";
	}
	function c() { details.nodeValue = ' '; }
]]>
</script>
<rect x="0.0" y="0" width="492.0" height="490.0" fill="rgb(255,255,255)"  />
<text text-anchor="middle" x="246" y="24" font-size="17" font-family="Verdana" fill="rgb(0,0,0)"  >Latency Heat Map</text>
<text text-anchor="left" x="246" y="477" font-size="12" font-family="Verdana" fill="rgb(0,0,0)"  >Time</text>
<text text-anchor="" x="10" y="460" font-size="12" font-family="Verdana" fill="rgb(0,0,0)" id="details" > </text>
<rect x="10.0" y="436" width="8.0" height="8.0" fill="rgb(255,147,135)" onmouseover="s('0','0-257us',71,71,220)" onmouseout="c()" />
<rect x="10.0" y="428" width="8.0" height="8.0" fill="rgb(255,99,91)" onmouseover="s('0','257-514us',108,179,220)" onmouseout="c()" />
<rect x="10.0" y="420" width="8.0" height="8.0" fill="rgb(255,213,195)" onmouseover="s('0','514-771us',21,200,220)" onmouseout="c()" />
<rect x="10.0" y="412" width="8.0" height="8.0" fill="rgb(255,231,212)" onmouseover="s('0','771-1028us',7,207,220)" onmouseout="c()" />
<rect x="10.0" y="404" width="8.0" height="8.0" fill="rgb(255,236,216)" onmouseover="s('0','1028-1285us',3,210,220)" onmouseout="c()" />
<rect x="10.0" y="396" width="8.0" height="8.0" fill="rgb(255,237,218)" onmouseover="s('0','1285-1542us',2,212,220)" onmouseout="c()" />
<rect x="10.0" y="388" width="8.0" height="8.0" fill="rgb(255,239,219)" onmouseover="s('0','1542-1799us',1,213,220)" onmouseout="c()" />
<rect x="10.0" y="380" width="8.0" height="8.0" fill="rgb(255,237,218)" onmouseover="s('0','1799-2056us',2,215,220)" onmouseout="c()" />
<rect x="10.0" y="364" width="8.0" height="8.0" fill="rgb(255,239,219)" onmouseover="s('0','2313-2570us',1,216,220)" onmouseout="c()" />
<rect x="10.0" y="348" width="8.0" height="8.0" fill="rgb(255,239,219)" onmouseover="s('0','2827-3084us',1,217,220)" onmouseout="c()" />
<rect x="10.0" y="276" width="8.0" height="8.0" fill="rgb(255,239,219)" onmouseover="s('0','5140-5397us',1,218,220)" onmouseout="c()" />
<rect x="10.0" y="188" width="8.0" height="8.0" fill="rgb(255,239,219)" onmouseover="s('0','7967-8224us',1,219,220)" onmouseout="c()" />
<rect x="10.0" y="60" width="8.0" height="8.0" fill="rgb(255,239,219)" onmouseover="s('0','12079-12336us',1,220,220)" onmouseout="c()" />
<rect x="18.0" y="436" width="8.0" height="8.0" fill="rgb(255,134,123)" onmouseover="s('1','0-257us',81,81,188)" onmouseout="c()" />
<rect x="18.0" y="428" width="8.0" height="8.0" fill="rgb(255,124,114)" onmouseover="s('1','257-514us',89,170,188)" onmouseout="c()" />
<rect x="18.0" y="420" width="8.0" height="8.0" fill="rgb(255,230,210)" onmouseover="s('1','514-771us',8,178,188)" onmouseout="c()" />
<rect x="18.0" y="412" width="8.0" height="8.0" fill="rgb(255,236,216)" onmouseover="s('1','771-1028us',3,181,188)" onmouseout="c()" />
<rect x="18.0" y="404" width="8.0" height="8.0" fill="rgb(255,236,216)" onmouseover="s('1','1028-1285us',3,184,188)" onmouseout="c()" />
<rect x="18.0" y="388" width="8.0" height="8.0" fill="rgb(255,239,219)" onmouseover="s('1','1542-1799us',1,185,188)" onmouseout="c()" />
<rect x="18.0" y="364" width="8.0" height="8.0" fill="rgb(255,239,219)" onmouseover="s('1','2313-2570us',1,186,188)" onmouseout="c()" />
<rect x="18.0" y="324" width="8.0" height="8.0" fill="rgb(255,239,219)" onmouseover="s('1','3598-3855us',1,187,188)" onmouseout="c()" />
<rect x="18.0" y="252" width="8.0" height="8.0" fill="rgb(255,239,219)" onmouseover="s('1','5911-6168us',1,188,188)" onmouseout="c()" />
<rect x="26.0" y="436" width="8.0" height="8.0" fill="rgb(255,134,123)" onmouseover="s('2','0-257us',81,81,211)" onmouseout="c()" />
<rect x="26.0" y="428" width="8.0" height="8.0" fill="rgb(255,115,105)" onmouseover="s('2','257-514us',96,177,211)" onmouseout="c()" />
<rect x="26.0" y="420" width="8.0" height="8.0" fill="rgb(255,217,198)" onmouseover="s('2','514-771us',18,195,211)" onmouseout="c()" />
<rect x="26.0" y="412" width="8.0" height="8.0" fill="rgb(255,233,214)" onmouseover="s('2','771-1028us',5,200,211)" onmouseout="c()" />
<rect x="26.0" y="404" width="8.0" height="8.0" fill="rgb(255,235,215)" onmouseover="s('2','1028-1285us',4,204,211)" onmouseout="c()" />
<rect x="26.0" y="396" width="8.0" height="8.0" fill="rgb(255,237,218)" onmouseover="s('2','1285-1542us',2,206,211)" onmouseout="c()" />
<rect x="26.0" y="388" width="8.0" height="8.0" fill="rgb(255,237,218)" onmouseover="s('2','1542-1799us',2,208,211)" onmouseout="c()" />
<rect x="26.0" y="364" width="8.0" height="8.0" fill="rgb(255,239,219)" onmouseover="s('2','2313-2570us',1,209,211)" onmouseout="c()" />
<rect x="26.0" y="356" width="8.0" height="8.0" fill="rgb(255,239,219)" onmouseover="s('2','2570-2827us',1,210,211)" onmouseout="c()" />
<rect x="26.0" y="252" width="8.0" height="8.0" fill="rgb(255,239,219)" onmouseover="s('2','5911-6168us',1,211,211)" onmouseout="c()" />
<rect x="34.0" y="436" width="8.0" height="8.0" fill="rgb(255,151,139)" onmouseover="s('3','0-257us',68,68,194)" onmouseout="c()" />
<rect x="34.0" y="428" width="8.0" height="8.0" fill="rgb(255,128,117)" onmouseover="s('3','257-514us',86,154,194)" onmouseout="c()" />
<rect x="34.0" y="420" width="8.0" height="8.0" fill="rgb(255,218,200)" onmouseover="s('3','514-771us',17,171,194)" onmouseout="c()" />
<rect x="34.0" y="412" width="8.0" height="8.0" fill="rgb(255,226,207)" onmouseover="s('3','771-1028us',11,182,194)" onmouseout="c()" />
<rect x="34.0" y="404" width="8.0" height="8.0" fill="rgb(255,233,214)" onmouseover="s('3','1028-1285us',5,187,194)" onmouseout="c()" />
<rect x="34.0" y="388" width="8.0" height="8.0" fill="rgb(255,236,216)" onmouseover="s('3','1542-1799us',3,190,194)" onmouseout="c()" />
<rect x="34.0" y="356" width="8.0" height="8.0" fill="rgb(255,239,219)" onmouseover="s('3','2570-2827us',1,191,194)" onmouseout="c()" />
<rect x="34.0" y="332" width="8.0" height="8.0" fill="rgb(255,239,219)" onmouseover="s('3','3341-3598us',1,192,194)" onmouseout="c()" />
<rect x="34.0" y="300" width="8.0" height="8.0" fill="rgb(255,239,219)" onmouseover="s('3','4369-4626us',1,193,194)" onmouseout="c()" />
<rect x="34.0" y="204" width="8.0" height="8.0" fill="rgb(255,239,219)" onmouseover="s('3','7453-7710us',1,194,194)" onmouseout="c()" />
<rect x="42.0" y="436" width="8.0" height="8.0" fill="rgb(255,93,85)" onmouseover="s('4','0-257us',113,113,206)" onmouseout="c()" />
<rect x="42.0" y="428" width="8.0" height="8.0" fill="rgb(255,151,139)" onmouseover="s('4','257-514us',68,181,206)" onmouseout="c()" />
<rect x="42.0" y="420" width="8.0" height="8.0" fill="rgb(255,223,204)" onmouseover="s('4','514-771us',13,194,206)" onmouseout="c()" />
<rect x="42.0" y="412" width="8.0" height="8.0" fill="rgb(255,232,213)" onmouseover="s('4','771-1028us',6,200,206)" onmouseout="c()" />
<rect x="42.0" y="404" width="8.0" height="8.0" fill="rgb(255,236,216)" onmouseover="s('4','1028-1285us',3,203,206)" onmouseout="c()" />
<rect x="42.0" y="396" width="8.0" height="8.0" fill="rgb(255,237,218)" onmouseover="s('4','1285-1542us',2,205,206)" onmouseout="c()" />
<rect x="42.0" y="316" width="8.0" height="8.0" fill="rgb(255,239,219)" onmouseover="s('4','3855-4112us',1,206,206)" onmouseout="c()" />
<rect x="50.0" y="436" width="8.0" height="8.0" fill="rgb(255,68,62)" onmouseover="s('5','0-257us',132,132,200)" onmouseout="c()" />
<rect x="50.0" y="428" width="8.0" height="8.0" fill="rgb(255,167,153)" onmouseover="s('5','257-514us',56,188,200)" onmouseout="c()" />
<rect x="50.0" y="420" width="8.0" height="8.0" fill="rgb(255,233,214)" onmouseover="s('5','514-771us',5,193,200)" onmouseout="c()" />
<rect x="50.0" y="412" width="8.0" height="8.0" fill="rgb(255,236,216)" onmouseover="s('5','771-1028us',3,196,200)" onmouseout="c()" />
<rect x="50.0" y="404" width="8.0" height="8.0" fill="rgb(255,239,219)" onmouseover="s('5','1028-1285us',1,197,200)" onmouseout="c()" />
<rect x="50.0" y="396" width="8.0" height="8.0" fill="rgb(255,239,219)" onmouseover="s('5','1285-1542us',1,198,200)" onmouseout="c()" />
<rect x="50.0" y="348" width="8.0" height="8.0" fill="rgb(255,239,219)" onmouseover="s('5','2827-3084us',1,199,200)" onmouseout="c()" />
<rect x="50.0" y="212" width="8.0" height="8.0" fill="rgb(255,239,219)" onmouseover="s('5','7196-7453us',1,200,200)" onmouseout="c()" />
<rect x="58.0" y="436" width="8.0" height="8.0" fill="rgb(255,95,87)" onmouseover="s('6','0-257us',111,111,200)" onmouseout="c()" />
<rect x="58.0" y="428" width="8.0" height="8.0" fill="rgb(255,150,138)" onmouseover="s('6','257-514us',69,180,200)" onmouseout="c()" />
<rect x="58.0" y="420" width="8.0" height="8.0" fill="rgb(255,227,208)" onmouseover="s('6','514-771us',10,190,200)" onmouseout="c()" />
<rect x="58.0" y="412" width="8.0" height="8.0" fill="rgb(255,232,213)" onmouseover="s('6','771-1028us',6,196,200)" onmouseout="c()" />
<rect x="58.0" y="396" width="8.0" height="8.0" fill="rgb(255,237,218)" onmouseover="s('6','1285-1542us',2,198,200)" onmouseout="c()" />
<rect x="58.0" y="388" width="8.0" height="8.0" fill="rgb(255,239,219)" onmouseover="s('6','1542-1799us',1,199,200)" onmouseout="c()" />
<rect x="58.0" y="372" width="8.0" height="8.0" fill="rgb(255,239,219)" onmouseover="s('6','2056-2313us',1,200,200)" onmouseout="c()" />
<rect x="66.0" y="436" width="8.0" height="8.0" fill="rgb(255,63,57)" onmouseover="s('7','0-257us',136,136,200)" onmouseout="c()" />
<rect x="66.0" y="428" width="8.0" height="8.0" fill="rgb(255,173,159)" onmouseover="s('7','257-514us',51,187,200)" onmouseout="c()" />
<rect x="66.0" y="420" width="8.0" height="8.0" fill="rgb(255,233,214)" onmouseover="s('7','514-771us',5,192,200)" onmouseout="c()" />
<rect x="66.0" y="412" width="8.0" height="8.0" fill="rgb(255,235,215)" onmouseover="s('7','771-1028us',4,196,200)" onmouseout="c()" />
<rect x="66.0" y="396" width="8.0" height="8.0" fill="rgb(255,236,216)" onmouseover="s('7','1285-1542us',3,199,200)" onmouseout="c()" />
<rect x="66.0" y="388" width="8.0" height="8.0" fill="rgb(255,239,219)" onmouseover="s('7','1542-1799us',1,200,200)" onmouseout="c()" />
<rect x="74.0" y="436" width="8.0" height="8.0" fill="rgb(255,40,37)" onmouseover="s('8','0-257us',153,153,200)" onmouseout="c()" />
<rect x="74.0" y="428" width="8.0" height="8.0" fill="rgb(255,190,175)" onmouseover="s('8','257-514us',38,191,200)" onmouseout="c()" />
<rect x="74.0" y="420" width="8.0" height="8.0" fill="rgb(255,239,219)" onmouseover="s('8','514-771us',1,192,200)" onmouseout="c()" />
<rect x="74.0" y="412" width="8.0" height="8.0" fill="rgb(255,236,216)" onmouseover="s('8','771-1028us',3,195,200)" onmouseout="c()" />
<rect x="74.0" y="404" width="8.0" height="8.0" fill="rgb(255,236,216)" onmouseover="s('8','1028-1285us',3,198,200)" onmouseout="c()" />
<rect x="74.0" y="388" width="8.0" height="8.0" fill="rgb(255,239,219)" onmouseover="s('8','1542-1799us',1,199,200)" onmouseout="c()" />
<rect x="74.0" y="380" width="8.0" height="8.0" fill="rgb(255,239,219)" onmouseover="s('8','1799-2056us',1,200,200)" onmouseout="c()" />
<rect x="82.0" y="436" width="8.0" height="8.0" fill="rgb(255,42,38)" onmouseover="s('9','0-257us',152,152,200)" onmouseout="c()" />
<rect x="82.0" y="428" width="8.0" height="8.0" fill="rgb(255,183,167)" onmouseover="s('9','257-514us',44,196,200)" onmouseout="c()" />
<rect x="82.0" y="420" width="8.0" height="8.0" fill="rgb(255,237,218)" onmouseover="s('9','514-771us',2,198,200)" onmouseout="c()" />
<rect x="82.0" y="404" width="8.0" height="8.0" fill="rgb(255,239,219)" onmouseover="s('9','1028-1285us',1,199,200)" onmouseout="c()" />
<rect x="82.0" y="364" width="8.0" height="8.0" fill="rgb(255,239,219)" onmouseover="s('9','2313-2570us',1,200,200)" onmouseout="c()" />
<rect x="90.0" y="436" width="8.0" height="8.0" fill="rgb(255,53,49)" onmouseover="s('10','0-257us',143,143,200)" onmouseout="c()" />
<rect x="90.0" y="428" width="8.0" height="8.0" fill="rgb(255,175,160)" onmouseover="s('10','257-514us',50,193,200)" onmouseout="c()" />
<rect x="90.0" y="420" width="8.0" height="8.0" fill="rgb(255,236,216)" onmouseover="s('10','514-771us',3,196,200)" onmouseout="c()" />
<rect x="90.0" y="412" width="8.0" height="8.0" fill="rgb(255,237,218)" onmouseover="s('10','771-1028us',2,198,200)" onmouseout="c()" />
<rect x="90.0" y="396" width="8.0" height="8.0" fill="rgb(255,239,219)" onmouseover="s('10','1285-1542us',1,199,200)" onmouseout="c()" />
<rect x="90.0" y="388" width="8.0" height="8.0" fill="rgb(255,239,219)" onmouseover="s('10','1542-1799us',1,200,200)" onmouseout="c()" />
<rect x="98.0" y="436" width="8.0" height="8.0" fill="rgb(255,33,30)" onmouseover="s('11','0-257us',159,159,200)" onmouseout="c()" />
<rect x="98.0" y="428" width="8.0" height="8.0" fill="rgb(255,194,178)" onmouseover="s('11','257-514us',35,194,200)" onmouseout="c()" />
<rect x="98.0" y="412" width="8.0" height="8.0" fill="rgb(255,236,216)" onmouseover="s('11','771-1028us',3,197,200)" onmouseout="c()" />
<rect x="98.0" y="404" width="8.0" height="8.0" fill="rgb(255,239,219)" onmouseover="s('11','1028-1285us',1,198,200)" onmouseout="c()" />
<rect x="98.0" y="396" width="8.0" height="8.0" fill="rgb(255,239,219)" onmouseover="s('11','1285-1542us',1,199,200)" onmouseout="c()" />
<rect x="98.0" y="372" width="8.0" height="8.0" fill="rgb(255,239,219)" onmouseover="s('11','2056-2313us',1,200,200)" onmouseout="c()" />
<rect x="106.0" y="436" width="8.0" height="8.0" fill="rgb(255,55,50)" onmouseover="s('12','0-257us',142,142,200)" onmouseout="c()" />
<rect x="106.0" y="428" width="8.0" height="8.0" fill="rgb(255,173,159)" onmouseover="s('12','257-514us',51,193,200)" onmouseout="c()" />
<rect x="106.0" y="420" width="8.0" height="8.0" fill="rgb(255,239,219)" onmouseover="s('12','514-771us',1,194,200)" onmouseout="c()" />
<rect x="106.0" y="412" width="8.0" height="8.0" fill="rgb(255,237,218)" onmouseover="s('12','771-1028us',2,196,200)" onmouseout="c()" />
<rect x="106.0" y="404" width="8.0" height="8.0" fill="rgb(255,237,218)" onmouseover="s('12','1028-1285us',2,198,200)" onmouseout="c()" />
<rect x="106.0" y="396" width="8.0" height="8.0" fill="rgb(255,237,218)" onmouseover="s('12','1285-1542us',2,200,200)" onmouseout="c()" />
<rect x="114.0" y="436" width="8.0" height="8.0" fill="rgb(255,26,24)" onmouseover="s('13','0-257us',164,164,200)" onmouseout="c()" />
<rect x="114.0" y="428" width="8.0" height="8.0" fill="rgb(255,200,183)" onmouseover="s('13','257-514us',31,195,200)" onmouseout="c()" />
<rect x="114.0" y="420" width="8.0" height="8.0" fill="rgb(255,239,219)" onmouseover="s('13','514-771us',1,196,200)" onmouseout="c()" />
<rect x="114.0" y="412" width="8.0" height="8.0" fill="rgb(255,236,216)" onmouseover="s('13','771-1028us',3,199,200)" onmouseout="c()" />
<rect x="114.0" y="388" width="8.0" height="8.0" fill="rgb(255,239,219)" onmouseover="s('13','1542-1799us',1,200,200)" onmouseout="c()" />
<rect x="122.0" y="436" width="8.0" height="8.0" fill="rgb(255,57,53)" onmouseover="s('14','0-257us',140,140,200)" onmouseout="c()" />
<rect x="122.0" y="428" width="8.0" height="8.0" fill="rgb(255,166,152)" onmouseover="s('14','257-514us',57,197,200)" onmouseout="c()" />
<rect x="122.0" y="412" width="8.0" height="8.0" fill="rgb(255,239,219)" onmouseover="s('14','771-1028us',1,198,200)" onmouseout="c()" />
<rect x="122.0" y="404" width="8.0" height="8.0" fill="rgb(255,239,219)" onmouseover="s('14','1028-1285us',1,199,200)" onmouseout="c()" />
<rect x="122.0" y="396" width="8.0" height="8.0" fill="rgb(255,239,219)" onmouseover="s('14','1285-1542us',1,200,200)" onmouseout="c()" />
<rect x="130.0" y="436" width="8.0" height="8.0" fill="rgb(255,14,13)" onmouseover="s('15','0-257us',173,173,200)" onmouseout="c()" />
<rect x="130.0" y="428" width="8.0" height="8.0" fill="rgb(255,214,196)" onmouseover="s('15','257-514us',20,193,200)" onmouseout="c()" />
<rect x="130.0" y="412" width="8.0" height="8.0" fill="rgb(255,236,216)" onmouseover="s('15','771-1028us',3,196,200)" onmouseout="c()" />
<rect x="130.0" y="404" width="8.0" height="8.0" fill="rgb(255,236,216)" onmouseover="s('15','1028-1285us',3,199,200)" onmouseout="c()" />
<rect x="130.0" y="372" width="8.0" height="8.0" fill="rgb(255,239,219)" onmouseover="s('15','2056-2313us',1,200,200)" onmouseout="c()" />
<rect x="138.0" y="436" width="8.0" height="8.0" fill="rgb(255,26,24)" onmouseover="s('16','0-257us',164,164,200)" onmouseout="c()" />
<rect x="138.0" y="428" width="8.0" height="8.0" fill="rgb(255,198,182)" onmouseover="s('16','257-514us',32,196,200)" onmouseout="c()" />
<rect x="138.0" y="420" width="8.0" height="8.0" fill="rgb(255,237,218)" onmouseover="s('16','514-771us',2,198,200)" onmouseout="c()" />
<rect x="138.0" y="412" width="8.0" height="8.0" fill="rgb(255,239,219)" onmouseover="s('16','771-1028us',1,199,200)" onmouseout="c()" />
<rect x="138.0" y="404" width="8.0" height="8.0" fill="rgb(255,239,219)" onmouseover="s('16','1028-1285us',1,200,200)" onmouseout="c()" />
<rect x="146.0" y="436" width="8.0" height="8.0" fill="rgb(255,39,36)" onmouseover="s('17','0-257us',154,154,200)" onmouseout="c()" />
<rect x="146.0" y="428" width="8.0" height="8.0" fill="rgb(255,189,173)" onmouseover="s('17','257-514us',39,193,200)" onmouseout="c()" />
<rect x="146.0" y="420" width="8.0" height="8.0" fill="rgb(255,239,219)" onmouseover="s('17','514-771us',1,194,200)" onmouseout="c()" />
<rect x="146.0" y="412" width="8.0" height="8.0" fill="rgb(255,235,215)" onmouseover="s('17','771-1028us',4,198,200)" onmouseout="c()" />
<rect x="146.0" y="380" width="8.0" height="8.0" fill="rgb(255,239,219)" onmouseover="s('17','1799-2056us',1,199,200)" onmouseout="c()" />
<rect x="146.0" y="364" width="8.0" height="8.0" fill="rgb(255,239,219)" onmouseover="s('17','2313-2570us',1,200,200)" onmouseout="c()" />
<rect x="154.0" y="436" width="8.0" height="8.0" fill="rgb(255,13,12)" onmouseover="s('18','0-257us',174,174,200)" onmouseout="c()" />
<rect x="154.0" y="428" width="8.0" height="8.0" fill="rgb(255,213,195)" onmouseover="s('18','257-514us',21,195,200)" onmouseout="c()" />
<rect x="154.0" y="412" width="8.0" height="8.0" fill="rgb(255,236,216)" onmouseover="s('18','771-1028us',3,198,200)" onmouseout="c()" />
<rect x="154.0" y="396" width="8.0" height="8.0" fill="rgb(255,239,219)" onmouseover="s('18','1285-1542us',1,199,200)" onmouseout="c()" />
<rect x="154.0" y="276" width="8.0" height="8.0" fill="rgb(255,239,219)" onmouseover="s('18','5140-5397us',1,200,200)" onmouseout="c()" />
<rect x="162.0" y="436" width="8.0" height="8.0" fill="rgb(255,37,33)" onmouseover="s('19','0-257us',156,156,192)" onmouseout="c()" />
<rect x="162.0" y="428" width="8.0" height="8.0" fill="rgb(255,205,188)" onmouseover="s('19','257-514us',27,183,192)" onmouseout="c()" />
<rect x="162.0" y="420" width="8.0" height="8.0" fill="rgb(255,239,219)" onmouseover="s('19','514-771us',1,184,192)" onmouseout="c()" />
<rect x="162.0" y="412" width="8.0" height="8.0" fill="rgb(255,236,216)" onmouseover="s('19','771-1028us',3,187,192)" onmouseout="c()" />
<rect x="162.0" y="404" width="8.0" height="8.0" fill="rgb(255,236,216)" onmouseover="s('19','1028-1285us',3,190,192)" onmouseout="c()" />
<rect x="162.0" y="396" width="8.0" height="8.0" fill="rgb(255,239,219)" onmouseover="s('19','1285-1542us',1,191,192)" onmouseout="c()" />
<rect x="162.0" y="388" width="8.0" height="8.0" fill="rgb(255,239,219)" onmouseover="s('19','1542-1799us',1,192,192)" onmouseout="c()" />
<rect x="170.0" y="436" width="8.0" height="8.0" fill="rgb(255,20,18)" onmouseover="s('20','0-257us',169,169,208)" onmouseout="c()" />
<rect x="170.0" y="428" width="8.0" height="8.0" fill="rgb(255,197,181)" onmouseover="s('20','257-514us',33,202,208)" onmouseout="c()" />
<rect x="170.0" y="420" width="8.0" height="8.0" fill="rgb(255,239,219)" onmouseover="s('20','514-771us',1,203,208)" onmouseout="c()" />
<rect x="170.0" y="412" width="8.0" height="8.0" fill="rgb(255,236,216)" onmouseover="s('20','771-1028us',3,206,208)" onmouseout="c()" />
<rect x="170.0" y="404" width="8.0" height="8.0" fill="rgb(255,237,218)" onmouseover="s('20','1028-1285us',2,208,208)" onmouseout="c()" />
<rect x="178.0" y="436" width="8.0" height="8.0" fill="rgb(255,18,17)" onmouseover="s('21','0-257us',170,170,200)" onmouseout="c()" />
<rect x="178.0" y="428" width="8.0" height="8.0" fill="rgb(255,210,192)" onmouseover="s('21','257-514us',23,193,200)" onmouseout="c()" />
<rect x="178.0" y="420" width="8.0" height="8.0" fill="rgb(255,239,219)" onmouseover="s('21','514-771us',1,194,200)" onmouseout="c()" />
<rect x="178.0" y="412" width="8.0" height="8.0" fill="rgb(255,235,215)" onmouseover="s('21','771-1028us',4,198,200)" onmouseout="c()" />
<rect x="178.0" y="404" width="8.0" height="8.0" fill="rgb(255,237,218)" onmouseover="s('21','1028-1285us',2,200,200)" onmouseout="c()" />
<rect x="186.0" y="436" width="8.0" height="8.0" fill="rgb(255,27,25)" onmouseover="s('22','0-257us',163,163,200)" onmouseout="c()" />
<rect x="186.0" y="428" width="8.0" height="8.0" fill="rgb(255,194,178)" onmouseover="s('22','257-514us',35,198,200)" onmouseout="c()" />
<rect x="186.0" y="412" width="8.0" height="8.0" fill="rgb(255,239,219)" onmouseover="s('22','771-1028us',1,199,200)" onmouseout="c()" />
<rect x="186.0" y="332" width="8.0" height="8.0" fill="rgb(255,239,219)" onmouseover="s('22','3341-3598us',1,200,200)" onmouseout="c()" />
<rect x="194.0" y="436" width="8.0" height="8.0" fill="rgb(255,31,29)" onmouseover="s('23','0-257us',160,160,200)" onmouseout="c()" />
<rect x="194.0" y="428" width="8.0" height="8.0" fill="rgb(255,194,178)" onmouseover="s('23','257-514us',35,195,200)" onmouseout="c()" />
<rect x="194.0" y="412" width="8.0" height="8.0" fill="rgb(255,237,218)" onmouseover="s('23','771-1028us',2,197,200)" onmouseout="c()" />
<rect x="194.0" y="404" width="8.0" height="8.0" fill="rgb(255,236,216)" onmouseover="s('23','1028-1285us',3,200,200)" onmouseout="c()" />
<rect x="202.0" y="436" width="8.0" height="8.0" fill="rgb(255,30,28)" onmouseover="s('24','0-257us',161,161,200)" onmouseout="c()" />
<rect x="202.0" y="428" width="8.0" height="8.0" fill="rgb(255,198,182)" onmouseover="s('24','257-514us',32,193,200)" onmouseout="c()" />
<rect x="202.0" y="420" width="8.0" height="8.0" fill="rgb(255,236,216)" onmouseover="s('24','514-771us',3,196,200)" onmouseout="c()" />
<rect x="202.0" y="412" width="8.0" height="8.0" fill="rgb(255,236,216)" onmouseover="s('24','771-1028us',3,199,200)" onmouseout="c()" />
<rect x="202.0" y="404" width="8.0" height="8.0" fill="rgb(255,239,219)" onmouseover="s('24','1028-1285us',1,200,200)" onmouseout="c()" />
<rect x="210.0" y="436" width="8.0" height="8.0" fill="rgb(255,44,41)" onmouseover="s('25','0-257us',150,150,200)" onmouseout="c()" />
<rect x="210.0" y="428" width="8.0" height="8.0" fill="rgb(255,179,164)" onmouseover="s('25','257-514us',47,197,200)" onmouseout="c()" />
<rect x="210.0" y="420" width="8.0" height="8.0" fill="rgb(255,239,219)" onmouseover="s('25','514-771us',1,198,200)" onmouseout="c()" />
<rect x="210.0" y="404" width="8.0" height="8.0" fill="rgb(255,239,219)" onmouseover="s('25','1028-1285us',1,199,200)" onmouseout="c()" />
<rect x="210.0" y="380" width="8.0" height="8.0" fill="rgb(255,239,219)" onmouseover="s('25','1799-2056us',1,200,200)" onmouseout="c()" />
<rect x="218.0" y="436" width="8.0" height="8.0" fill="rgb(255,14,13)" onmouseover="s('26','0-257us',173,173,198)" onmouseout="c()" />
<rect x="218.0" y="428" width="8.0" height="8.0" fill="rgb(255,214,196)" onmouseover="s('26','257-514us',20,193,198)" onmouseout="c()" />
<rect x="218.0" y="420" width="8.0" height="8.0" fill="rgb(255,239,219)" onmouseover="s('26','514-771us',1,194,198)" onmouseout="c()" />
<rect x="218.0" y="412" width="8.0" height="8.0" fill="rgb(255,237,218)" onmouseover="s('26','771-1028us',2,196,198)" onmouseout="c()" />
<rect x="218.0" y="404" width="8.0" height="8.0" fill="rgb(255,239,219)" onmouseover="s('26','1028-1285us',1,197,198)" onmouseout="c()" />
<rect x="218.0" y="388" width="8.0" height="8.0" fill="rgb(255,239,219)" onmouseover="s('26','1542-1799us',1,198,198)" onmouseout="c()" />
<rect x="226.0" y="436" width="8.0" height="8.0" fill="rgb(255,18,17)" onmouseover="s('27','0-257us',170,170,202)" onmouseout="c()" />
<rect x="226.0" y="428" width="8.0" height="8.0" fill="rgb(255,209,191)" onmouseover="s('27','257-514us',24,194,202)" onmouseout="c()" />
<rect x="226.0" y="420" width="8.0" height="8.0" fill="rgb(255,239,219)" onmouseover="s('27','514-771us',1,195,202)" onmouseout="c()" />
<rect x="226.0" y="412" width="8.0" height="8.0" fill="rgb(255,235,215)" onmouseover="s('27','771-1028us',4,199,202)" onmouseout="c()" />
<rect x="226.0" y="404" width="8.0" height="8.0" fill="rgb(255,237,218)" onmouseover="s('27','1028-1285us',2,201,202)" onmouseout="c()" />
<rect x="226.0" y="396" width="8.0" height="8.0" fill="rgb(255,239,219)" onmouseover="s('27','1285-1542us',1,202,202)" onmouseout="c()" />
<rect x="234.0" y="436" width="8.0" height="8.0" fill="rgb(255,20,18)" onmouseover="s('28','0-257us',169,169,199)" onmouseout="c()" />
<rect x="234.0" y="428" width="8.0" height="8.0" fill="rgb(255,205,188)" onmouseover="s('28','257-514us',27,196,199)" onmouseout="c()" />
<rect x="234.0" y="412" width="8.0" height="8.0" fill="rgb(255,236,216)" onmouseover="s('28','771-1028us',3,199,199)" onmouseout="c()" />
<rect x="242.0" y="436" width="8.0" height="8.0" fill="rgb(255,5,5)" onmouseover="s('29','0-257us',180,180,201)" onmouseout="c()" />
<rect x="242.0" y="428" width="8.0" height="8.0" fill="rgb(255,217,198)" onmouseover="s('29','257-514us',18,198,201)" onmouseout="c()" />
<rect x="242.0" y="420" width="8.0" height="8.0" fill="rgb(255,237,218)" onmouseover="s('29','514-771us',2,200,201)" onmouseout="c()" />
<rect x="242.0" y="404" width="8.0" height="8.0" fill="rgb(255,239,219)" onmouseover="s('29','1028-1285us',1,201,201)" onmouseout="c()" />
<rect x="250.0" y="436" width="8.0" height="8.0" fill="rgb(255,16,14)" onmouseover="s('30','0-257us',172,172,200)" onmouseout="c()" />
<rect x="250.0" y="428" width="8.0" height="8.0" fill="rgb(255,214,196)" onmouseover="s('30','257-514us',20,192,200)" onmouseout="c()" />
<rect x="250.0" y="420" width="8.0" height="8.0" fill="rgb(255,239,219)" onmouseover="s('30','514-771us',1,193,200)" onmouseout="c()" />
<rect x="250.0" y="412" width="8.0" height="8.0" fill="rgb(255,233,214)" onmouseover="s('30','771-1028us',5,198,200)" onmouseout="c()" />
<rect x="250.0" y="404" width="8.0" height="8.0" fill="rgb(255,239,219)" onmouseover="s('30','1028-1285us',1,199,200)" onmouseout="c()" />
<rect x="250.0" y="396" width="8.0" height="8.0" fill="rgb(255,239,219)" onmouseover="s('30','1285-1542us',1,200,200)" onmouseout="c()" />
<rect x="258.0" y="436" width="8.0" height="8.0" fill="rgb(255,37,33)" onmouseover="s('31','0-257us',156,156,200)" onmouseout="c()" />
<rect x="258.0" y="428" width="8.0" height="8.0" fill="rgb(255,190,175)" onmouseover="s('31','257-514us',38,194,200)" onmouseout="c()" />
<rect x="258.0" y="420" width="8.0" height="8.0" fill="rgb(255,236,216)" onmouseover="s('31','514-771us',3,197,200)" onmouseout="c()" />
<rect x="258.0" y="412" width="8.0" height="8.0" fill="rgb(255,239,219)" onmouseover="s('31','771-1028us',1,198,200)" onmouseout="c()" />
<rect x="258.0" y="404" width="8.0" height="8.0" fill="rgb(255,237,218)" onmouseover="s('31','1028-1285us',2,200,200)" onmouseout="c()" />
<rect x="266.0" y="436" width="8.0" height="8.0" fill="rgb(255,10,10)" onmouseover="s('32','0-257us',176,176,200)" onmouseout="c()" />
<rect x="266.0" y="428" width="8.0" height="8.0" fill="rgb(255,215,197)" onmouseover="s('32','257-514us',19,195,200)" onmouseout="c()" />
<rect x="266.0" y="420" width="8.0" height="8.0" fill="rgb(255,239,219)" onmouseover="s('32','514-771us',1,196,200)" onmouseout="c()" />
<rect x="266.0" y="412" width="8.0" height="8.0" fill="rgb(255,239,219)" onmouseover="s('32','771-1028us',1,197,200)" onmouseout="c()" />
<rect x="266.0" y="404" width="8.0" height="8.0" fill="rgb(255,237,218)" onmouseover="s('32','1028-1285us',2,199,200)" onmouseout="c()" />
<rect x="266.0" y="396" width="8.0" height="8.0" fill="rgb(255,239,219)" onmouseover="s('32','1285-1542us',1,200,200)" onmouseout="c()" />
<rect x="274.0" y="436" width="8.0" height="8.0" fill="rgb(255,14,13)" onmouseover="s('33','0-257us',173,173,200)" onmouseout="c()" />
<rect x="274.0" y="428" width="8.0" height="8.0" fill="rgb(255,213,195)" onmouseover="s('33','257-514us',21,194,200)" onmouseout="c()" />
<rect x="274.0" y="412" width="8.0" height="8.0" fill="rgb(255,236,216)" onmouseover="s('33','771-1028us',3,197,200)" onmouseout="c()" />
<rect x="274.0" y="404" width="8.0" height="8.0" fill="rgb(255,237,218)" onmouseover="s('33','1028-1285us',2,199,200)" onmouseout="c()" />
<rect x="274.0" y="380" width="8.0" height="8.0" fill="rgb(255,239,219)" onmouseover="s('33','1799-2056us',1,200,200)" onmouseout="c()" />
<rect x="282.0" y="436" width="8.0" height="8.0" fill="rgb(255,9,8)" onmouseover="s('34','0-257us',177,177,200)" onmouseout="c()" />
<rect x="282.0" y="428" width="8.0" height="8.0" fill="rgb(255,214,196)" onmouseover="s('34','257-514us',20,197,200)" onmouseout="c()" />
<rect x="282.0" y="412" width="8.0" height="8.0" fill="rgb(255,236,216)" onmouseover="s('34','771-1028us',3,200,200)" onmouseout="c()" />
<rect x="290.0" y="436" width="8.0" height="8.0" fill="rgb(255,25,23)" onmouseover="s('35','0-257us',165,165,200)" onmouseout="c()" />
<rect x="290.0" y="428" width="8.0" height="8.0" fill="rgb(255,205,188)" onmouseover="s('35','257-514us',27,192,200)" onmouseout="c()" />
<rect x="290.0" y="420" width="8.0" height="8.0" fill="rgb(255,237,218)" onmouseover="s('35','514-771us',2,194,200)" onmouseout="c()" />
<rect x="290.0" y="412" width="8.0" height="8.0" fill="rgb(255,236,216)" onmouseover="s('35','771-1028us',3,197,200)" onmouseout="c()" />
<rect x="290.0" y="404" width="8.0" height="8.0" fill="rgb(255,239,219)" onmouseover="s('35','1028-1285us',1,198,200)" onmouseout="c()" />
<rect x="290.0" y="396" width="8.0" height="8.0" fill="rgb(255,239,219)" onmouseover="s('35','1285-1542us',1,199,200)" onmouseout="c()" />
<rect x="290.0" y="364" width="8.0" height="8.0" fill="rgb(255,239,219)" onmouseover="s('35','2313-2570us',1,200,200)" onmouseout="c()" />
<rect x="298.0" y="436" width="8.0" height="8.0" fill="rgb(255,16,14)" onmouseover="s('36','0-257us',172,172,200)" onmouseout="c()" />
<rect x="298.0" y="428" width="8.0" height="8.0" fill="rgb(255,210,192)" onmouseover="s('36','257-514us',23,195,200)" onmouseout="c()" />
<rect x="298.0" y="420" width="8.0" height="8.0" fill="rgb(255,239,219)" onmouseover="s('36','514-771us',1,196,200)" onmouseout="c()" />
<rect x="298.0" y="412" width="8.0" height="8.0" fill="rgb(255,236,216)" onmouseover="s('36','771-1028us',3,199,200)" onmouseout="c()" />
<rect x="298.0" y="324" width="8.0" height="8.0" fill="rgb(255,239,219)" onmouseover="s('36','3598-3855us',1,200,200)" onmouseout="c()" />
<rect x="306.0" y="436" width="8.0" height="8.0" fill="rgb(255,31,29)" onmouseover="s('37','0-257us',160,160,197)" onmouseout="c()" />
<rect x="306.0" y="428" width="8.0" height="8.0" fill="rgb(255,198,182)" onmouseover="s('37','257-514us',32,192,197)" onmouseout="c()" />
<rect x="306.0" y="420" width="8.0" height="8.0" fill="rgb(255,237,218)" onmouseover="s('37','514-771us',2,194,197)" onmouseout="c()" />
<rect x="306.0" y="412" width="8.0" height="8.0" fill="rgb(255,236,216)" onmouseover="s('37','771-1028us',3,197,197)" onmouseout="c()" />
<rect x="314.0" y="436" width="8.0" height="8.0" fill="rgb(255,18,17)" onmouseover="s('38','0-257us',170,170,203)" onmouseout="c()" />
<rect x="314.0" y="428" width="8.0" height="8.0" fill="rgb(255,198,182)" onmouseover="s('38','257-514us',32,202,203)" onmouseout="c()" />
<rect x="314.0" y="412" width="8.0" height="8.0" fill="rgb(255,239,219)" onmouseover="s('38','771-1028us',1,203,203)" onmouseout="c()" />
<rect x="322.0" y="436" width="8.0" height="8.0" fill="rgb(255,42,38)" onmouseover="s('39','0-257us',152,152,200)" onmouseout="c()" />
<rect x="322.0" y="428" width="8.0" height="8.0" fill="rgb(255,181,166)" onmouseover="s('39','257-514us',45,197,200)" onmouseout="c()" />
<rect x="322.0" y="420" width="8.0" height="8.0" fill="rgb(255,237,218)" onmouseover="s('39','514-771us',2,199,200)" onmouseout="c()" />
<rect x="322.0" y="412" width="8.0" height="8.0" fill="rgb(255,239,219)" onmouseover="s('39','771-1028us',1,200,200)" onmouseout="c()" />
<rect x="330.0" y="436" width="8.0" height="8.0" fill="rgb(255,7,6)" onmouseover="s('40','0-257us',179,179,200)" onmouseout="c()" />
<rect x="330.0" y="428" width="8.0" height="8.0" fill="rgb(255,220,202)" onmouseover="s('40','257-514us',15,194,200)" onmouseout="c()" />
<rect x="330.0" y="420" width="8.0" height="8.0" fill="rgb(255,236,216)" onmouseover="s('40','514-771us',3,197,200)" onmouseout="c()" />
<rect x="330.0" y="412" width="8.0" height="8.0" fill="rgb(255,237,218)" onmouseover="s('40','771-1028us',2,199,200)" onmouseout="c()" />
<rect x="330.0" y="404" width="8.0" height="8.0" fill="rgb(255,239,219)" onmouseover="s('40','1028-1285us',1,200,200)" onmouseout="c()" />
<rect x="338.0" y="436" width="8.0" height="8.0" fill="rgb(255,39,36)" onmouseover="s('41','0-257us',154,154,200)" onmouseout="c()" />
<rect x="338.0" y="428" width="8.0" height="8.0" fill="rgb(255,187,171)" onmouseover="s('41','257-514us',41,195,200)" onmouseout="c()" />
<rect x="338.0" y="420" width="8.0" height="8.0" fill="rgb(255,237,218)" onmouseover="s('41','514-771us',2,197,200)" onmouseout="c()" />
<rect x="338.0" y="412" width="8.0" height="8.0" fill="rgb(255,236,216)" onmouseover="s('41','771-1028us',3,200,200)" onmouseout="c()" />
<rect x="346.0" y="436" width="8.0" height="8.0" fill="rgb(255,18,17)" onmouseover="s('42','0-257us',170,170,200)" onmouseout="c()" />
<rect x="346.0" y="428" width="8.0" height="8.0" fill="rgb(255,203,187)" onmouseover="s('42','257-514us',28,198,200)" onmouseout="c()" />
<rect x="346.0" y="412" width="8.0" height="8.0" fill="rgb(255,237,218)" onmouseover="s('42','771-1028us',2,200,200)" onmouseout="c()" />
<rect x="354.0" y="436" width="8.0" height="8.0" fill="rgb(255,12,11)" onmouseover="s('43','0-257us',175,175,200)" onmouseout="c()" />
<rect x="354.0" y="428" width="8.0" height="8.0" fill="rgb(255,210,192)" onmouseover="s('43','257-514us',23,198,200)" onmouseout="c()" />
<rect x="354.0" y="412" width="8.0" height="8.0" fill="rgb(255,237,218)" onmouseover="s('43','771-1028us',2,200,200)" onmouseout="c()" />
<rect x="362.0" y="436" width="8.0" height="8.0" fill="rgb(255,13,12)" onmouseover="s('44','0-257us',174,174,200)" onmouseout="c()" />
<rect x="362.0" y="428" width="8.0" height="8.0" fill="rgb(255,214,196)" onmouseover="s('44','257-514us',20,194,200)" onmouseout="c()" />
<rect x="362.0" y="420" width="8.0" height="8.0" fill="rgb(255,237,218)" onmouseover="s('44','514-771us',2,196,200)" onmouseout="c()" />
<rect x="362.0" y="412" width="8.0" height="8.0" fill="rgb(255,237,218)" onmouseover="s('44','771-1028us',2,198,200)" onmouseout="c()" />
<rect x="362.0" y="404" width="8.0" height="8.0" fill="rgb(255,239,219)" onmouseover="s('44','1028-1285us',1,199,200)" onmouseout="c()" />
<rect x="362.0" y="396" width="8.0" height="8.0" fill="rgb(255,239,219)" onmouseover="s('44','1285-1542us',1,200,200)" onmouseout="c()" />
<rect x="370.0" y="436" width="8.0" height="8.0" fill="rgb(255,1,1)" onmouseover="s('45','0-257us',183,183,200)" onmouseout="c()" />
<rect x="370.0" y="428" width="8.0" height="8.0" fill="rgb(255,222,203)" onmouseover="s('45','257-514us',14,197,200)" onmouseout="c()" />
<rect x="370.0" y="420" width="8.0" height="8.0" fill="rgb(255,237,218)" onmouseover="s('45','514-771us',2,199,200)" onmouseout="c()" />
<rect x="370.0" y="404" width="8.0" height="8.0" fill="rgb(255,239,219)" onmouseover="s('45','1028-1285us',1,200,200)" onmouseout="c()" />
<rect x="378.0" y="436" width="8.0" height="8.0" fill="rgb(255,9,8)" onmouseover="s('46','0-257us',177,177,200)" onmouseout="c()" />
<rect x="378.0" y="428" width="8.0" height="8.0" fill="rgb(255,217,198)" onmouseover="s('46','257-514us',18,195,200)" onmouseout="c()" />
<rect x="378.0" y="420" width="8.0" height="8.0" fill="rgb(255,236,216)" onmouseover="s('46','514-771us',3,198,200)" onmouseout="c()" />
<rect x="378.0" y="412" width="8.0" height="8.0" fill="rgb(255,237,218)" onmouseover="s('46','771-1028us',2,200,200)" onmouseout="c()" />
<rect x="386.0" y="436" width="8.0" height="8.0" fill="rgb(255,35,32)" onmouseover="s('47','0-257us',157,157,200)" onmouseout="c()" />
<rect x="386.0" y="428" width="8.0" height="8.0" fill="rgb(255,187,171)" onmouseover="s('47','257-514us',41,198,200)" onmouseout="c()" />
<rect x="386.0" y="412" width="8.0" height="8.0" fill="rgb(255,239,219)" onmouseover="s('47','771-1028us',1,199,200)" onmouseout="c()" />
<rect x="386.0" y="396" width="8.0" height="8.0" fill="rgb(255,239,219)" onmouseover="s('47','1285-1542us',1,200,200)" onmouseout="c()" />
<rect x="394.0" y="436" width="8.0" height="8.0" fill="rgb(255,14,13)" onmouseover="s('48','0-257us',173,173,200)" onmouseout="c()" />
<rect x="394.0" y="428" width="8.0" height="8.0" fill="rgb(255,210,192)" onmouseover="s('48','257-514us',23,196,200)" onmouseout="c()" />
<rect x="394.0" y="420" width="8.0" height="8.0" fill="rgb(255,239,219)" onmouseover="s('48','514-771us',1,197,200)" onmouseout="c()" />
<rect x="394.0" y="412" width="8.0" height="8.0" fill="rgb(255,239,219)" onmouseover="s('48','771-1028us',1,198,200)" onmouseout="c()" />
<rect x="394.0" y="404" width="8.0" height="8.0" fill="rgb(255,237,218)" onmouseover="s('48','1028-1285us',2,200,200)" onmouseout="c()" />
<rect x="402.0" y="436" width="8.0" height="8.0" fill="rgb(255,21,19)" onmouseover="s('49','0-257us',168,168,200)" onmouseout="c()" />
<rect x="402.0" y="428" width="8.0" height="8.0" fill="rgb(255,218,200)" onmouseover="s('49','257-514us',17,185,200)" onmouseout="c()" />
<rect x="402.0" y="420" width="8.0" height="8.0" fill="rgb(255,228,209)" onmouseover="s('49','514-771us',9,194,200)" onmouseout="c()" />
<rect x="402.0" y="412" width="8.0" height="8.0" fill="rgb(255,233,214)" onmouseover="s('49','771-1028us',5,199,200)" onmouseout="c()" />
<rect x="402.0" y="388" width="8.0" height="8.0" fill="rgb(255,239,219)" onmouseover="s('49','1542-1799us',1,200,200)" onmouseout="c()" />
<rect x="410.0" y="436" width="8.0" height="8.0" fill="rgb(255,9,8)" onmouseover="s('50','0-257us',177,177,200)" onmouseout="c()" />
<rect x="410.0" y="428" width="8.0" height="8.0" fill="rgb(255,217,198)" onmouseover="s('50','257-514us',18,195,200)" onmouseout="c()" />
<rect x="410.0" y="420" width="8.0" height="8.0" fill="rgb(255,237,218)" onmouseover="s('50','514-771us',2,197,200)" onmouseout="c()" />
<rect x="410.0" y="412" width="8.0" height="8.0" fill="rgb(255,239,219)" onmouseover="s('50','771-1028us',1,198,200)" onmouseout="c()" />
<rect x="410.0" y="404" width="8.0" height="8.0" fill="rgb(255,239,219)" onmouseover="s('50','1028-1285us',1,199,200)" onmouseout="c()" />
<rect x="410.0" y="316" width="8.0" height="8.0" fill="rgb(255,239,219)" onmouseover="s('50','3855-4112us',1,200,200)" onmouseout="c()" />
<rect x="418.0" y="436" width="8.0" height="8.0" fill="rgb(255,35,32)" onmouseover="s('51','0-257us',157,157,200)" onmouseout="c()" />
<rect x="418.0" y="428" width="8.0" height="8.0" fill="rgb(255,197,181)" onmouseover="s('51','257-514us',33,190,200)" onmouseout="c()" />
<rect x="418.0" y="420" width="8.0" height="8.0" fill="rgb(255,236,216)" onmouseover="s('51','514-771us',3,193,200)" onmouseout="c()" />
<rect x="418.0" y="412" width="8.0" height="8.0" fill="rgb(255,233,214)" onmouseover="s('51','771-1028us',5,198,200)" onmouseout="c()" />
<rect x="418.0" y="404" width="8.0" height="8.0" fill="rgb(255,239,219)" onmouseover="s('51','1028-1285us',1,199,200)" onmouseout="c()" />
<rect x="418.0" y="396" width="8.0" height="8.0" fill="rgb(255,239,219)" onmouseover="s('51','1285-1542us',1,200,200)" onmouseout="c()" />
<rect x="426.0" y="436" width="8.0" height="8.0" fill="rgb(255,3,2)" onmouseover="s('52','0-257us',182,182,200)" onmouseout="c()" />
<rect x="426.0" y="428" width="8.0" height="8.0" fill="rgb(255,218,200)" onmouseover="s('52','257-514us',17,199,200)" onmouseout="c()" />
<rect x="426.0" y="412" width="8.0" height="8.0" fill="rgb(255,239,219)" onmouseover="s('52','771-1028us',1,200,200)" onmouseout="c()" />
<rect x="434.0" y="436" width="8.0" height="8.0" fill="rgb(255,12,11)" onmouseover="s('53','0-257us',175,175,200)" onmouseout="c()" />
<rect x="434.0" y="428" width="8.0" height="8.0" fill="rgb(255,214,196)" onmouseover="s('53','257-514us',20,195,200)" onmouseout="c()" />
<rect x="434.0" y="420" width="8.0" height="8.0" fill="rgb(255,237,218)" onmouseover="s('53','514-771us',2,197,200)" onmouseout="c()" />
<rect x="434.0" y="412" width="8.0" height="8.0" fill="rgb(255,236,216)" onmouseover="s('53','771-1028us',3,200,200)" onmouseout="c()" />
<rect x="442.0" y="436" width="8.0" height="8.0" fill="rgb(255,14,13)" onmouseover="s('54','0-257us',173,173,200)" onmouseout="c()" />
<rect x="442.0" y="428" width="8.0" height="8.0" fill="rgb(255,209,191)" onmouseover="s('54','257-514us',24,197,200)" onmouseout="c()" />
<rect x="442.0" y="412" width="8.0" height="8.0" fill="rgb(255,239,219)" onmouseover="s('54','771-1028us',1,198,200)" onmouseout="c()" />
<rect x="442.0" y="404" width="8.0" height="8.0" fill="rgb(255,239,219)" onmouseover="s('54','1028-1285us',1,199,200)" onmouseout="c()" />
<rect x="442.0" y="380" width="8.0" height="8.0" fill="rgb(255,239,219)" onmouseover="s('54','1799-2056us',1,200,200)" onmouseout="c()" />
<rect x="450.0" y="436" width="8.0" height="8.0" fill="rgb(255,14,13)" onmouseover="s('55','0-257us',173,173,200)" onmouseout="c()" />
<rect x="450.0" y="428" width="8.0" height="8.0" fill="rgb(255,213,195)" onmouseover="s('55','257-514us',21,194,200)" onmouseout="c()" />
<rect x="450.0" y="420" width="8.0" height="8.0" fill="rgb(255,239,219)" onmouseover="s('55','514-771us',1,195,200)" onmouseout="c()" />
<rect x="450.0" y="412" width="8.0" height="8.0" fill="rgb(255,235,215)" onmouseover="s('55','771-1028us',4,199,200)" onmouseout="c()" />
<rect x="450.0" y="404" width="8.0" height="8.0" fill="rgb(255,239,219)" onmouseover="s('55','1028-1285us',1,200,200)" onmouseout="c()" />
<rect x="458.0" y="436" width="8.0" height="8.0" fill="rgb(255,9,8)" onmouseover="s('56','0-257us',177,177,200)" onmouseout="c()" />
<rect x="458.0" y="428" width="8.0" height="8.0" fill="rgb(255,214,196)" onmouseover="s('56','257-514us',20,197,200)" onmouseout="c()" />
<rect x="458.0" y="412" width="8.0" height="8.0" fill="rgb(255,239,219)" onmouseover="s('56','771-1028us',1,198,200)" onmouseout="c()" />
<rect x="458.0" y="404" width="8.0" height="8.0" fill="rgb(255,239,219)" onmouseover="s('56','1028-1285us',1,199,200)" onmouseout="c()" />
<rect x="458.0" y="396" width="8.0" height="8.0" fill="rgb(255,239,219)" onmouseover="s('56','1285-1542us',1,200,200)" onmouseout="c()" />
<rect x="466.0" y="436" width="8.0" height="8.0" fill="rgb(255,9,8)" onmouseover="s('57','0-257us',177,177,200)" onmouseout="c()" />
<rect x="466.0" y="428" width="8.0" height="8.0" fill="rgb(255,214,196)" onmouseover="s('57','257-514us',20,197,200)" onmouseout="c()" />
<rect x="466.0" y="420" width="8.0" height="8.0" fill="rgb(255,239,219)" onmouseover="s('57','514-771us',1,198,200)" onmouseout="c()" />
<rect x="466.0" y="412" width="8.0" height="8.0" fill="rgb(255,237,218)" onmouseover="s('57','771-1028us',2,200,200)" onmouseout="c()" />
<rect x="474.0" y="436" width="8.0" height="8.0" fill="rgb(255,0,0)" onmouseover="s('58','0-257us',184,184,200)" onmouseout="c()" />
<rect x="474.0" y="428" width="8.0" height="8.0" fill="rgb(255,224,206)" onmouseover="s('58','257-514us',12,196,200)" onmouseout="c()" />
<rect x="474.0" y="420" width="8.0" height="8.0" fill="rgb(255,239,219)" onmouseover="s('58','514-771us',1,197,200)" onmouseout="c()" />
<rect x="474.0" y="412" width="8.0" height="8.0" fill="rgb(255,239,219)" onmouseover="s('58','771-1028us',1,198,200)" onmouseout="c()" />
<rect x="474.0" y="396" width="8.0" height="8.0" fill="rgb(255,239,219)" onmouseover="s('58','1285-1542us',1,199,200)" onmouseout="c()" />
<rect x="474.0" y="388" width="8.0" height="8.0" fill="rgb(255,239,219)" onmouseover="s('58','1542-1799us',1,200,200)" onmouseout="c()" />
</svg>
